<?xml version="1.0" encoding="UTF-8"?>
<svg preserveAspectRatio="none" version="1.1" viewBox="0 0 1920 1080" xmlns="http://www.w3.org/2000/svg">
<g mask="url(#a)">
<rect width="1920" height="1080" fill="rgba(55, 9, 97, 1)"/>
<path d="m0 833.88c163.72 37.136 361.18 35.351 487.72-74.973 126.32-110.12 97.776-310.07 139.97-472.25 34.089-131.04 101.51-254.72 84.079-388.99-17.555-135.22-110.54-240.84-181-357.57-85.927-142.36-127.32-331.09-277.62-402.24-152.83-72.352-332.67-8.772-495.68 36.149-165.37 45.57-348.91 87.169-451.29 224.8-100.81 135.52-77.651 321.01-80.346 489.89-2.388 149.62-11.993 306.95 65.588 434.9 74.349 122.62 228.59 158.41 344.96 242.21 124.72 89.82 213.73 234.08 363.62 268.07" fill="#2c074e"/>
<path d="m1920 1696.6c114.98 19.234 240.14-31.892 323.26-113.64 78.804-77.502 67.658-203.4 104.91-307.46 33.314-93.056 122.17-174.98 102.48-271.84-19.671-96.748-136.4-134.7-200.41-209.86-64.779-76.057-92.533-181.41-177.54-233.9-97.769-60.376-216.1-102.59-328.48-78.584-114.77 24.518-201.01 116.9-275.5 207.61-73.014 88.915-151.42 190.3-145.62 305.21 5.646 111.76 111.87 186.11 175.1 278.44 51.32 74.936 97.227 148.34 161.28 212.73 80.48 80.906 147.95 192.46 260.5 211.29" fill="#420b74"/>
</g>
<defs>
<mask id="a">
<rect width="1920" height="1080" fill="#fff"/>
</mask>
</defs>
</svg>
